<svg width="461" height="127" viewBox="0 0 461 127" xmlns="http://www.w3.org/2000/svg"><path d="M45.865 49.7H18.738c-5.9 0-10.6 4.8-10.6 10.6v28.1H4.8c-2.7 0-4.8 2.2-4.8 4.8C0 95.9 2.2 98 4.8 98h3.338v24.2c0 2.7 2.2 4.8 4.8 4.8 2.6 0 4.8-2.2 4.8-4.8V98h28.027c5.9 0 10.6-4.8 10.6-10.6V60.3c.1-5.9-4.6-10.6-10.5-10.6zm1 34.8c0 2.1-1.468 3.9-3.367 3.9H17.765V63.2c0-2.1 1.468-3.9 3.368-3.9h22.365c1.813 0 3.367 1.7 3.367 3.9v21.3zm29-29.7v38.7c0 2.7-2.2 4.8-4.8 4.8-2.7 0-4.8-2.2-4.8-4.8V54.8c0-2.7 2.2-4.8 4.8-4.8 2.6 0 4.8 2.1 4.8 4.8zm280.6 32.72V60.3c0-5.9-4.8-10.6-10.6-10.6h-27.1c-5.9 0-10.6 4.8-10.6 10.6v27.1c0 5.9 4.8 10.6 10.6 10.6h27.3c7.238 0 10.4-4.201 10.4-10.48zm-13.606.88h-21.294c-2.1 0-3.9-1.7-3.9-3.9V63.2c0-2.1 1.7-3.9 3.9-3.9h21.3c2.1 0 3.9 1.7 3.9 3.9v21.449c0 2.281-2.001 3.751-3.906 3.751zm79.106-26.5v3.5c0 1.8 1.3 2.9 3.2 2.9h24.8c5.9 0 10.7 4.8 10.7 10.7v7.7c0 5.9-4.8 10.7-10.7 10.7h-32.9c-2.7 0-4.8-2.2-4.8-4.8 0-2.7 2.2-4.8 4.8-4.8h30.2c2.2 0 3.7-1.1 3.7-2.8v-3.9c0-2-1.9-3-3.7-3h-24.3c-5.9 0-10.7-4.8-10.7-10.7v-7.7c0-5.9 4.8-10.7 10.7-10.7h23.1c2.7 0 4.8 2.2 4.8 4.8 0 2.6-2.2 4.8-4.8 4.8h-20.7c-1.9 0-3.4 1.1-3.4 3.3zm-219.4 1v3.5c0 1.8 1.3 2.9 3.2 2.9h24.8c5.9 0 10.7 4.8 10.7 10.7v7.7c0 5.9-4.8 10.7-10.7 10.7h-32.9c-2.7 0-4.8-2.2-4.8-4.8 0-2.7 2.2-4.8 4.8-4.8h30.2c2.2 0 3.7-1.1 3.7-2.8v-3.9c0-2-1.9-3-3.7-3h-24.3c-5.9 0-10.7-4.8-10.7-10.7v-7.7c0-5.9 4.8-10.7 10.7-10.7h23.1c2.7 0 4.8 2.2 4.8 4.8 0 2.6-2.2 4.8-4.8 4.8h-20.7c-1.9 0-3.4 1.1-3.4 3.3zm57.1-.3v3.5c0 1.8 1.3 2.9 3.2 2.9h24.8c5.9 0 10.7 4.8 10.7 10.7v7.7c0 5.9-4.8 10.7-10.7 10.7h-32.8c-2.7 0-4.8-2.2-4.8-4.8 0-2.7 2.2-4.8 4.8-4.8h30.2c2.2 0 3.7-1.1 3.7-2.8v-3.9c0-2-1.9-3-3.7-3h-24.3c-5.9 0-10.7-4.8-10.7-10.7v-7.7c0-5.9 4.8-10.7 10.7-10.7h23.2c2.7 0 4.8 2.2 4.8 4.8 0 2.6-2.2 4.8-4.8 4.8h-20.7c-2 0-3.6 1.1-3.6 3.3zM119.365 98h-23.2c-5.9 0-10.7-4.8-10.7-10.7v-27c0-5.9 4.8-10.7 10.7-10.7h23.2c2.7 0 4.8 2.2 4.8 4.8 0 2.6-2.2 4.8-4.8 4.8h-20.3c-2.1 0-3.8 1.7-3.8 3.8v21.3c0 2.1 1.7 3.8 3.8 3.8h20.3c2.7 0 4.8 2.2 4.8 4.8.1 3-2.1 5.1-4.8 5.1zm247.704 28.552h23.2c5.9 0 10.7-4.8 10.7-10.7v-62c0-3.043-2.36-4.852-4.823-4.852-2.464 0-4.977 1.813-4.977 4.852v59c0 2.1-1.7 3.8-3.8 3.8h-20.3c-2.7 0-4.8 2.2-4.8 4.8-.1 3 2.1 5.1 4.8 5.1zM171.665 49.7h-23.2c-2.7 0-4.8 2.2-4.8 4.8 0 2.6 2.2 4.8 4.8 4.8h20.3c2.1 0 3.9 1.7 3.9 3.9V69h-28.1c-5.9 0-10.6 4.8-10.6 10.6v7.7c0 5.9 4.8 10.6 10.6 10.6h27.1c5.9 0 10.6-4.8 10.6-10.6v-27c0-5.9-4.8-10.6-10.6-10.6zm-3 38.7h-21.5c-2.6 0-3.6-1.4-3.6-3.2V82c0-1.8 1.7-3.2 3.8-3.2h25.2v5.8c0 2-1.7 3.8-3.9 3.8zM70.9 41.8c-5.5 0-9.9-4.5-9.9-9.9s4.5-9.9 9.9-9.9c5.5 0 9.9 4.5 9.9 9.9s-4.4 9.9-9.9 9.9zm8.565-24.4c-4 0-7.2-3.2-7.2-7.2s3.2-7.2 7.2-7.2 7.2 3.2 7.2 7.2-3.2 7.2-7.2 7.2zm20.7 4.4c-3.2 0-5.9-2.6-5.9-5.9 0-3.3 2.6-5.9 5.9-5.9 3.2 0 5.9 2.6 5.9 5.9 0 3.3-2.6 5.9-5.9 5.9zm17.3-13.4c-2.3 0-4.2-1.9-4.2-4.2 0-2.3 1.9-4.2 4.2-4.2 2.3 0 4.2 1.9 4.2 4.2 0 2.3-1.8 4.2-4.2 4.2zm256.3 89.4a5 5 0 1 1 0-10 5 5 0 0 1 0 10z" fill="#fff"/><text x="90.5%" y="92%" font-size="16" font-family="Arial, sans-serif" fill="#fff">BETA</text></svg>