<svg width="480px" height="128px" viewBox="0 0 480 128" version="1.1" xmlns="http://www.w3.org/2000/svg" xmlns:xlink="http://www.w3.org/1999/xlink">
  <g fill-rule="nonzero" fill="#fff">
    <path d="M65.1,49.9 L33.3,49.9 C27.4,49.9 22.7,54.7 22.7,60.5 L22.7,88.6 L5.3,88.6 C2.6,88.6 0.5,90.8 0.5,93.4 C0.5,96.1 2.7,98.2 5.3,98.2 L22.7,98.2 L22.7,122.4 C22.7,125.1 24.9,127.2 27.5,127.2 C30.1,127.2 32.3,125 32.3,122.4 L32.3,98.2 L65,98.2 C70.9,98.2 75.6,93.4 75.6,87.6 L75.6,60.5 C75.7,54.6 71,49.9 65.1,49.9 Z M66.1,84.7 C66.1,86.8 64.4,88.6 62.2,88.6 L32.4,88.6 L32.4,63.4 C32.4,61.3 34.1,59.5 36.3,59.5 L62.2,59.5 C64.3,59.5 66.1,61.2 66.1,63.4 L66.1,84.7 Z M95.1,55 L95.1,93.7 C95.1,96.4 92.9,98.5 90.3,98.5 C87.6,98.5 85.5,96.3 85.5,93.7 L85.5,55 C85.5,52.3 87.7,50.2 90.3,50.2 C92.9,50.2 95.1,52.3 95.1,55 Z M375.7,87.7206443 L375.7,60.5 C375.7,54.6 370.9,49.9 365.1,49.9 L338,49.9 C332.1,49.9 327.4,54.7 327.4,60.5 L327.4,87.6 C327.4,93.5 332.2,98.2 338,98.2 L365.3,98.2 C372.537323,98.2 375.7,93.9987963 375.7,87.7206443 Z M362.093877,88.6 C357.361904,88.6 350.263945,88.6 340.8,88.6 C338.7,88.6 336.9,86.9 336.9,84.7 L336.9,63.4 C336.9,61.3 338.6,59.5 340.8,59.5 L362.1,59.5 C364.2,59.5 366,61.2 366,63.4 C366,72.9327713 366,80.0823498 366,84.8487354 C366,87.1300139 363.998178,88.6 362.093877,88.6 Z M441.2,62.1 L441.2,65.6 C441.2,67.4 442.5,68.5 444.4,68.5 L469.2,68.5 C475.1,68.5 479.9,73.3 479.9,79.2 L479.9,86.9 C479.9,92.8 475.1,97.6 469.2,97.6 L436.3,97.6 C433.6,97.6 431.5,95.4 431.5,92.8 C431.5,90.1 433.7,88 436.3,88 L466.5,88 C468.7,88 470.2,86.9 470.2,85.2 L470.2,81.3 C470.2,79.3 468.3,78.3 466.5,78.3 L442.2,78.3 C436.3,78.3 431.5,73.5 431.5,67.6 L431.5,59.9 C431.5,54 436.3,49.2 442.2,49.2 L465.3,49.2 C468,49.2 470.1,51.4 470.1,54 C470.1,56.6 467.9,58.8 465.3,58.8 L444.6,58.8 C442.7,58.8 441.2,59.9 441.2,62.1 Z M221.8,63.1 L221.8,66.6 C221.8,68.4 223.1,69.5 225,69.5 L249.8,69.5 C255.7,69.5 260.5,74.3 260.5,80.2 L260.5,87.9 C260.5,93.8 255.7,98.6 249.8,98.6 L216.9,98.6 C214.2,98.6 212.1,96.4 212.1,93.8 C212.1,91.1 214.3,89 216.9,89 L247.1,89 C249.3,89 250.8,87.9 250.8,86.2 L250.8,82.3 C250.8,80.3 248.9,79.3 247.1,79.3 L222.8,79.3 C216.9,79.3 212.1,74.5 212.1,68.6 L212.1,60.9 C212.1,55 216.9,50.2 222.8,50.2 L245.9,50.2 C248.6,50.2 250.7,52.4 250.7,55 C250.7,57.6 248.5,59.8 245.9,59.8 L225.2,59.8 C223.3,59.8 221.8,60.9 221.8,63.1 Z M278.9,62.8 L278.9,66.3 C278.9,68.1 280.2,69.2 282.1,69.2 L306.9,69.2 C312.8,69.2 317.6,74 317.6,79.9 L317.6,87.6 C317.6,93.5 312.8,98.3 306.9,98.3 L274.1,98.3 C271.4,98.3 269.3,96.1 269.3,93.5 C269.3,90.8 271.5,88.7 274.1,88.7 L304.3,88.7 C306.5,88.7 308,87.6 308,85.9 L308,82 C308,80 306.1,79 304.3,79 L280,79 C274.1,79 269.3,74.2 269.3,68.3 L269.3,60.6 C269.3,54.7 274.1,49.9 280,49.9 L303.2,49.9 C305.9,49.9 308,52.1 308,54.7 C308,57.3 305.8,59.5 303.2,59.5 L282.5,59.5 C280.5,59.5 278.9,60.6 278.9,62.8 Z M138.6,98.2 L115.4,98.2 C109.5,98.2 104.7,93.4 104.7,87.5 L104.7,60.5 C104.7,54.6 109.5,49.8 115.4,49.8 L138.6,49.8 C141.3,49.8 143.4,52 143.4,54.6 C143.4,57.2 141.2,59.4 138.6,59.4 L118.3,59.4 C116.2,59.4 114.5,61.1 114.5,63.2 L114.5,84.5 C114.5,86.6 116.2,88.3 118.3,88.3 L138.6,88.3 C141.3,88.3 143.4,90.5 143.4,93.1 C143.5,96.1 141.3,98.2 138.6,98.2 Z M386.30328,126.751518 L409.50328,126.751518 C415.40328,126.751518 420.20328,121.951518 420.20328,116.051518 L420.20328,54.0515181 C420.20328,51.0088748 417.843703,49.2 415.380222,49.2 C412.916741,49.2 410.40328,51.0125396 410.40328,54.0515181 C410.40328,56.0775037 410.40328,75.7441704 410.40328,113.051518 C410.40328,115.151518 408.70328,116.851518 406.60328,116.851518 L386.30328,116.851518 C383.60328,116.851518 381.50328,119.051518 381.50328,121.651518 C381.40328,124.651518 383.60328,126.751518 386.30328,126.751518 Z M190.9,49.9 L167.7,49.9 C165,49.9 162.9,52.1 162.9,54.7 C162.9,57.3 165.1,59.5 167.7,59.5 L188,59.5 C190.1,59.5 191.9,61.2 191.9,63.4 L191.9,69.2 L163.8,69.2 C157.9,69.2 153.2,74 153.2,79.8 L153.2,87.5 C153.2,93.4 158,98.1 163.8,98.1 L190.9,98.1 C196.8,98.1 201.5,93.3 201.5,87.5 L201.5,60.5 C201.5,54.6 196.7,49.9 190.9,49.9 Z M187.9,88.6 L166.4,88.6 C163.8,88.6 162.8,87.2 162.8,85.4 C162.8,85.4 162.8,83 162.8,82.2 C162.8,80.4 164.5,79 166.6,79 C167.2,79 185,79 191.8,79 L191.8,84.8 C191.8,86.8 190.1,88.6 187.9,88.6 Z M90.4,42 C84.9,42 80.5,37.5 80.5,32.1 C80.5,26.7 85,22.2 90.4,22.2 C95.9,22.2 100.3,26.7 100.3,32.1 C100.3,37.5 95.9,42 90.4,42 Z M98.7,17.6 C94.7,17.6 91.5,14.4 91.5,10.4 C91.5,6.4 94.7,3.2 98.7,3.2 C102.7,3.2 105.9,6.4 105.9,10.4 C105.9,14.4 102.7,17.6 98.7,17.6 Z M119.4,22 C116.2,22 113.5,19.4 113.5,16.1 C113.5,12.8 116.1,10.2 119.4,10.2 C122.6,10.2 125.3,12.8 125.3,16.1 C125.3,19.4 122.7,22 119.4,22 Z M136.7,8.6 C134.4,8.6 132.5,6.7 132.5,4.4 C132.5,2.1 134.4,0.2 136.7,0.2 C139,0.2 140.9,2.1 140.9,4.4 C140.9,6.7 139.1,8.6 136.7,8.6 Z M393,98 C390.238576,98 388,95.7614237 388,93 C388,90.2385763 390.238576,88 393,88 C395.761424,88 398,90.2385763 398,93 C398,95.7614237 395.761424,98 393,98 Z" id="Wordmark"></path>
    <text x="90.1%" y="92%" font-size="16" font-family="Arial, sans-serif">BETA</text>
  </g>
</svg>
