<svg width="461px" height="127px" viewBox="0 0 461 127" version="1.1" xmlns="http://www.w3.org/2000/svg" xmlns:xlink="http://www.w3.org/1999/xlink">
  <g fill-rule="nonzero" fill="#fff" transform="translate(-662.000000, -675.000000)">
    <path d="M707.86541,724.7 L680.737947,724.7 C674.837947,724.7 670.137947,729.5 670.137947,735.3 L670.137947,763.4 L666.8,763.4 C664.1,763.4 662,765.6 662,768.2 C662,770.9 664.2,773 666.8,773 L670.137947,773 L670.137947,797.2 C670.137947,799.9 672.337947,802 674.937947,802 C677.537947,802 679.737947,799.8 679.737947,797.2 L679.737947,773 L707.76541,773 C713.66541,773 718.36541,768.2 718.36541,762.4 L718.36541,735.3 C718.46541,729.4 713.76541,724.7 707.86541,724.7 Z M708.86541,759.5 C708.86541,761.6 707.397457,763.4 705.497754,763.4 L679.76541,763.4 L679.76541,738.2 C679.76541,736.1 681.233362,734.3 683.133066,734.3 L705.497754,734.3 C707.311107,734.3 708.86541,736 708.86541,738.2 L708.86541,759.5 Z M737.86541,729.8 L737.86541,768.5 C737.86541,771.2 735.66541,773.3 733.06541,773.3 C730.36541,773.3 728.26541,771.1 728.26541,768.5 L728.26541,729.8 C728.26541,727.1 730.46541,725 733.06541,725 C735.66541,725 737.86541,727.1 737.86541,729.8 Z M1018.46541,762.520644 L1018.46541,735.3 C1018.46541,729.4 1013.66541,724.7 1007.86541,724.7 L980.76541,724.7 C974.86541,724.7 970.16541,729.5 970.16541,735.3 L970.16541,762.4 C970.16541,768.3 974.96541,773 980.76541,773 L1008.06541,773 C1015.30273,773 1018.46541,768.798796 1018.46541,762.520644 Z M1004.85929,763.4 C1000.12731,763.4 993.029355,763.4 983.56541,763.4 C981.46541,763.4 979.66541,761.7 979.66541,759.5 L979.66541,738.2 C979.66541,736.1 981.36541,734.3 983.56541,734.3 L1004.86541,734.3 C1006.96541,734.3 1008.76541,736 1008.76541,738.2 C1008.76541,747.732771 1008.76541,754.88235 1008.76541,759.648735 C1008.76541,761.930014 1006.76359,763.4 1004.85929,763.4 Z M1083.96541,736.9 L1083.96541,740.4 C1083.96541,742.2 1085.26541,743.3 1087.16541,743.3 L1111.96541,743.3 C1117.86541,743.3 1122.66541,748.1 1122.66541,754 L1122.66541,761.7 C1122.66541,767.6 1117.86541,772.4 1111.96541,772.4 L1079.06541,772.4 C1076.36541,772.4 1074.26541,770.2 1074.26541,767.6 C1074.26541,764.9 1076.46541,762.8 1079.06541,762.8 L1109.26541,762.8 C1111.46541,762.8 1112.96541,761.7 1112.96541,760 L1112.96541,756.1 C1112.96541,754.1 1111.06541,753.1 1109.26541,753.1 L1084.96541,753.1 C1079.06541,753.1 1074.26541,748.3 1074.26541,742.4 L1074.26541,734.7 C1074.26541,728.8 1079.06541,724 1084.96541,724 L1108.06541,724 C1110.76541,724 1112.86541,726.2 1112.86541,728.8 C1112.86541,731.4 1110.66541,733.6 1108.06541,733.6 L1087.36541,733.6 C1085.46541,733.6 1083.96541,734.7 1083.96541,736.9 Z M864.56541,737.9 L864.56541,741.4 C864.56541,743.2 865.86541,744.3 867.76541,744.3 L892.56541,744.3 C898.46541,744.3 903.26541,749.1 903.26541,755 L903.26541,762.7 C903.26541,768.6 898.46541,773.4 892.56541,773.4 L859.66541,773.4 C856.96541,773.4 854.86541,771.2 854.86541,768.6 C854.86541,765.9 857.06541,763.8 859.66541,763.8 L889.86541,763.8 C892.06541,763.8 893.56541,762.7 893.56541,761 L893.56541,757.1 C893.56541,755.1 891.66541,754.1 889.86541,754.1 L865.56541,754.1 C859.66541,754.1 854.86541,749.3 854.86541,743.4 L854.86541,735.7 C854.86541,729.8 859.66541,725 865.56541,725 L888.66541,725 C891.36541,725 893.46541,727.2 893.46541,729.8 C893.46541,732.4 891.26541,734.6 888.66541,734.6 L867.96541,734.6 C866.06541,734.6 864.56541,735.7 864.56541,737.9 Z M921.66541,737.6 L921.66541,741.1 C921.66541,742.9 922.96541,744 924.86541,744 L949.66541,744 C955.56541,744 960.36541,748.8 960.36541,754.7 L960.36541,762.4 C960.36541,768.3 955.56541,773.1 949.66541,773.1 L916.86541,773.1 C914.16541,773.1 912.06541,770.9 912.06541,768.3 C912.06541,765.6 914.26541,763.5 916.86541,763.5 L947.06541,763.5 C949.26541,763.5 950.76541,762.4 950.76541,760.7 L950.76541,756.8 C950.76541,754.8 948.86541,753.8 947.06541,753.8 L922.76541,753.8 C916.86541,753.8 912.06541,749 912.06541,743.1 L912.06541,735.4 C912.06541,729.5 916.86541,724.7 922.76541,724.7 L945.96541,724.7 C948.66541,724.7 950.76541,726.9 950.76541,729.5 C950.76541,732.1 948.56541,734.3 945.96541,734.3 L925.26541,734.3 C923.26541,734.3 921.66541,735.4 921.66541,737.6 Z M781.36541,773 L758.16541,773 C752.26541,773 747.46541,768.2 747.46541,762.3 L747.46541,735.3 C747.46541,729.4 752.26541,724.6 758.16541,724.6 L781.36541,724.6 C784.06541,724.6 786.16541,726.8 786.16541,729.4 C786.16541,732 783.96541,734.2 781.36541,734.2 L761.06541,734.2 C758.96541,734.2 757.26541,735.9 757.26541,738 L757.26541,759.3 C757.26541,761.4 758.96541,763.1 761.06541,763.1 L781.36541,763.1 C784.06541,763.1 786.16541,765.3 786.16541,767.9 C786.26541,770.9 784.06541,773 781.36541,773 Z M1029.06869,801.551518 L1052.26869,801.551518 C1058.16869,801.551518 1062.96869,796.751518 1062.96869,790.851518 L1062.96869,728.851518 C1062.96869,725.808875 1060.60911,724 1058.14563,724 C1055.68215,724 1053.16869,725.81254 1053.16869,728.851518 C1053.16869,730.877504 1053.16869,750.54417 1053.16869,787.851518 C1053.16869,789.951518 1051.46869,791.651518 1049.36869,791.651518 L1029.06869,791.651518 C1026.36869,791.651518 1024.26869,793.851518 1024.26869,796.451518 C1024.16869,799.451518 1026.36869,801.551518 1029.06869,801.551518 Z M833.66541,724.7 L810.46541,724.7 C807.76541,724.7 805.66541,726.9 805.66541,729.5 C805.66541,732.1 807.86541,734.3 810.46541,734.3 L830.76541,734.3 C832.86541,734.3 834.66541,736 834.66541,738.2 L834.66541,744 L806.56541,744 C800.66541,744 795.96541,748.8 795.96541,754.6 L795.96541,762.3 C795.96541,768.2 800.76541,772.9 806.56541,772.9 L833.66541,772.9 C839.56541,772.9 844.26541,768.1 844.26541,762.3 L844.26541,735.3 C844.26541,729.4 839.46541,724.7 833.66541,724.7 Z M830.66541,763.4 L809.16541,763.4 C806.56541,763.4 805.56541,762 805.56541,760.2 C805.56541,760.2 805.56541,757.8 805.56541,757 C805.56541,755.2 807.26541,753.8 809.36541,753.8 C809.96541,753.8 827.76541,753.8 834.56541,753.8 L834.56541,759.6 C834.56541,761.6 832.86541,763.4 830.66541,763.4 Z M732.9,716.8 C727.4,716.8 723,712.3 723,706.9 C723,701.5 727.5,697 732.9,697 C738.4,697 742.8,701.5 742.8,706.9 C742.8,712.3 738.4,716.8 732.9,716.8 Z M741.46541,692.4 C737.46541,692.4 734.26541,689.2 734.26541,685.2 C734.26541,681.2 737.46541,678 741.46541,678 C745.46541,678 748.66541,681.2 748.66541,685.2 C748.66541,689.2 745.46541,692.4 741.46541,692.4 Z M762.16541,696.8 C758.96541,696.8 756.26541,694.2 756.26541,690.9 C756.26541,687.6 758.86541,685 762.16541,685 C765.36541,685 768.06541,687.6 768.06541,690.9 C768.06541,694.2 765.46541,696.8 762.16541,696.8 Z M779.46541,683.4 C777.16541,683.4 775.26541,681.5 775.26541,679.2 C775.26541,676.9 777.16541,675 779.46541,675 C781.76541,675 783.66541,676.9 783.66541,679.2 C783.66541,681.5 781.86541,683.4 779.46541,683.4 Z M1035.76541,772.8 C1033.00399,772.8 1030.76541,770.561424 1030.76541,767.8 C1030.76541,765.038576 1033.00399,762.8 1035.76541,762.8 C1038.52683,762.8 1040.76541,765.038576 1040.76541,767.8 C1040.76541,770.561424 1038.52683,772.8 1035.76541,772.8 Z" id="Wordmark-Copy-3"></path>
  </g>
  <g fill-rule="nonzero" fill="#fff">
    <text x="90.5%" y="92%" font-size="16" font-family="Arial, sans-serif">BETA</text>
  </g>
</svg>
