<?xml version="1.0" encoding="UTF-8"?>
<svg width="357px" height="336px" viewBox="0 0 357 336" version="1.1" xmlns="http://www.w3.org/2000/svg" xmlns:xlink="http://www.w3.org/1999/xlink">
    <title>Artboard</title>
    <desc>Created with Sketch.</desc>
    <defs></defs>
    <g id="Page-1" stroke="none" stroke-width="1" fill="none" fill-rule="evenodd">
        <g id="Artboard">
            <path d="M143.458317,143.478762 C108.114163,147.139927 89.3967483,147.324854 87.3060731,144.033544 C84.1700603,139.096579 100.982273,136.555678 101.611286,117.572888 C102.2403,98.5900973 45.5660726,95.7758017 44.8364695,115.743282 C44.1068664,135.710762 62.8519304,135.820278 58.3494195,142.604007 C55.3477456,147.126493 35.8979391,147.418078 0,143.478762 L0,287.347557 C37.5120551,284.270602 56.242761,284.845724 56.1921179,289.072923 C56.1161533,295.413721 43.039073,296.091189 42.8112201,315.72473 C42.5833673,335.358271 99.8829968,334.346794 99.3356845,315.10901 C98.7883723,295.871226 86.6104975,297.397308 86.3300677,289.634922 C86.1431146,284.459998 104.742306,283.697543 142.127642,287.347557 C147.290786,250.474925 147.290786,231.843823 142.127642,231.45425 C134.895125,230.908537 137.868726,245.953647 118.03364,245.980122 C98.1985542,246.006596 97.8090628,188.857893 116.262605,189.065418 C134.716147,189.272942 134.396542,202.042114 142.127642,201.888392 C146.784705,201.795793 147.228263,182.325916 143.458317,143.478762 Z" id="Path-Copy" fill="#62C9C8" transform="translate(73.000000, 216.000000) scale(1, -1) translate(-73.000000, -216.000000) "></path>
            <path d="M339.636941,0 L196.038195,2.84800883e-14 C190.653935,37.6011388 190.653935,56.1221126 196.038195,55.5629214 C204.114585,54.7241345 201.352807,41.2452003 220.587939,41.5415108 C239.82307,41.8378214 242.506102,97.8982513 222.628519,98.7568967 C207.027382,99.4308139 202.522755,84.33092 196.038195,84.5623968 C191.715155,84.7167146 191.715155,104.534083 196.038195,144.014501 C235.596339,138.867362 255.339281,139.309724 255.267019,145.341588 C255.158628,154.389384 240.970771,150.895851 240.744871,170.361715 C240.518972,189.827579 297.117846,189.931209 297.181948,170.361715 C297.246051,150.792222 282.092201,151.497639 282.359101,144.014501 C282.537034,139.025742 302.183051,139.025742 341.297153,144.014501 C345.388416,104.379765 344.835012,84.5623968 339.636941,84.5623968 C330.003232,84.5623968 333.912772,98.2842344 313.132171,98.1537433 C292.351569,98.0232523 298.024948,41.5415108 315.924565,41.5415108 C333.824182,41.5415108 330.588901,56.1703876 339.636941,56.3637859 C345.101862,56.4805965 345.101862,37.6926678 339.636941,0 Z" id="Path-Copy-2" fill="#FFAA00" transform="translate(268.000000, 92.500000) scale(-1, 1) translate(-268.000000, -92.500000) "></path>
            <path d="M143.890415,0 L0,2.84693742e-14 L0,143.960324 C37.7082895,147.890697 56.6125052,147.643661 56.7126472,143.219215 C56.8628602,136.582547 42.640909,135.255605 42.8589735,116.51 C43.0770381,97.7643958 99.4732183,97.4644498 99.4106817,116.51 C99.3481451,135.555551 86.1435621,133.551607 85.8347857,142.188052 C85.6289348,147.945681 104.535917,148.536438 142.555732,143.960324 C138.914371,103.568974 139.685956,83.4091803 144.870486,83.4809415 C152.914328,83.5922796 153.295992,98.0709123 171.774011,98.0709123 C190.25203,98.0709123 189.187747,42.0703306 169.713813,41.6825559 C150.239879,41.2947811 152.958478,56.3472521 143.890415,56.3425822 C139.218942,56.3401765 139.218942,37.5593157 143.890415,0 Z" id="Path" fill="#B5FF32"></path>
        </g>
    </g>
</svg>
